# This file uses centimeters as units for non-parametric coordinates.

mtllib CornerTable.mtl
g default
v 12.922172 3.978552 -11.052014
v 12.922172 3.837803 -11.052014
v 12.922172 3.837803 -4.014576
v 12.922172 3.978552 -4.014576
v 6.517779 3.978552 -11.052014
v 6.517779 3.837803 -11.052014
v 6.517779 3.837803 -4.014576
v 6.517779 3.978552 -4.014576
v 5.738988 3.978552 -10.363657
v 5.738988 3.837803 -10.363657
v 6.517779 3.837803 -10.363657
v 12.922172 3.837803 -10.363657
v 13.700962 3.837803 -10.363657
v 13.700962 3.978552 -10.363657
v 12.922172 3.978552 -10.363657
v 6.517779 3.978552 -10.363657
v 5.738988 3.978552 -4.732728
v 5.738988 3.837803 -4.732728
v 6.517779 3.837799 -4.732728
v 12.922172 3.837799 -4.732728
v 13.700962 3.837803 -4.732728
v 13.700962 3.978552 -4.732728
v 12.922172 3.978552 -4.732728
v 6.517779 3.978552 -4.732728
v 6.517778 2.461185 -4.732728
v 12.922172 2.461185 -4.732728
v 6.517778 2.461182 -10.363657
v 12.922172 2.461182 -10.363657
v 5.738987 0.643568 -4.732728
v 6.517778 0.643568 -4.732728
v 6.517778 0.643568 -4.014576
v 12.922171 0.643568 -4.732728
v 12.922171 0.643568 -4.014576
v 13.700961 0.643568 -4.732728
v 6.517778 0.643568 -11.052014
v 6.517778 0.643568 -10.363657
v 5.738987 0.643568 -10.363658
v 12.922171 0.643568 -10.363657
v 13.700962 0.643568 -10.363658
v 12.922171 0.643568 -11.052014
v 6.083132 3.837803 -4.014576
v 5.738988 3.837803 -4.358721
v 5.738988 3.978552 -4.358721
v 6.083133 3.978552 -4.014576
v 13.700962 3.837803 -4.358721
v 13.356817 3.837803 -4.014576
v 13.356817 3.978552 -4.014576
v 13.700962 3.978552 -4.358721
v 5.738988 3.978552 -10.707870
v 6.083133 3.978552 -11.052014
v 5.738988 3.837803 -10.707870
v 6.083133 3.837803 -11.052014
v 13.700962 3.978552 -10.707870
v 13.356817 3.978552 -11.052014
v 13.356817 3.837803 -11.052014
v 13.700962 3.837803 -10.707870
v 5.738987 0.643568 -4.358721
v 6.083131 0.643568 -4.014576
v 13.356816 0.643568 -4.014576
v 13.700961 0.643568 -4.358721
v 5.738987 0.643568 -10.707870
v 6.083132 0.643568 -11.052015
v 13.700961 0.643568 -10.707870
v 13.356816 0.643568 -11.052014
vt 0.600547 1.000000
vt 0.600547 0.250000
vt 0.399453 0.000000
vt 0.375000 0.475547
vt 0.149453 0.000000
vt 0.399453 0.774453
vt 0.600547 0.774453
vt 0.625000 0.774453
vt 0.850547 0.250000
vt 0.600547 0.475547
vt 0.399453 0.475547
vt 0.349488 0.250000
vt 0.375000 0.974488
vt 0.399453 0.974488
vt 0.600547 0.974488
vt 0.650512 0.000000
vt 0.625000 0.275512
vt 0.600547 0.275512
vt 0.600547 0.974488
vt 0.399453 0.974488
vt 0.399453 0.774453
vt 0.600547 0.774453
vt 0.375000 0.262226
vt 0.399453 0.275512
vt 0.375000 0.275512
vt 0.625000 0.262226
vt 0.399453 0.500000
vt 0.375000 0.487774
vt 0.600547 0.500000
vt 0.625000 0.475547
vt 0.399453 0.974488
vt 0.399453 1.000000
vt 0.600547 0.974488
vt 0.625000 0.974488
vt 0.399453 0.774453
vt 0.375000 0.774453
vt 0.600547 0.774453
vt 0.600547 0.750000
vt 0.385989 1.000000
vt 0.385806 1.000000
vt 0.362775 0.000000
vt 0.362774 0.250000
vt 0.625000 0.987689
vt 0.625000 0.987774
vt 0.614194 0.000000
vt 0.614194 0.250000
vt 0.385806 0.500000
vt 0.375000 0.762381
vt 0.375000 0.762226
vt 0.625000 0.487774
vt 0.625000 0.750000
vt 0.614194 0.750000
vt 0.385806 0.000000
vt 0.399453 0.250000
vt 0.385806 0.250000
vt 0.399453 0.750000
vt 0.637226 0.000000
vt 0.650512 0.250000
vt 0.637226 0.250000
vt 0.349488 0.000000
vt 0.614195 0.500000
vt 0.614011 0.750000
vt 0.600547 0.000000
vt 0.137226 -0.000000
vt 0.149453 0.250000
vt 0.137226 0.250000
vt 0.850547 0.000000
vt 0.862774 0.000000
vt 0.862774 0.250000
vt 0.399453 1.000000
vt 0.375000 0.987837
vt 0.375000 0.974488
vt 0.375000 0.987774
vt 0.625000 0.974488
vt 0.614321 1.000000
vt 0.600547 1.000000
vt 0.614194 1.000000
vt 0.385806 0.750000
vt 0.399453 0.750000
vt 0.385806 0.750000
vt 0.375000 0.774453
vt 0.600547 0.750000
vt 0.625000 0.762072
vt 0.625000 0.774453
vt 0.625000 0.762226
vn 0.000000 -1.000000 -0.000000
vn 0.000000 -1.000000 -0.000000
vn 0.000000 -1.000000 -0.000000
vn 0.000000 -1.000000 -0.000000
vn 0.000000 -1.000000 -0.000000
vn 0.000000 -1.000000 0.000000
vn 0.000000 -1.000000 0.000000
vn 0.000000 -1.000000 0.000000
vn 0.000000 -1.000000 0.000000
vn 0.000000 -1.000000 0.000000
vn 0.000000 1.000000 0.000000
vn 0.000000 1.000000 0.000000
vn 0.000000 1.000000 0.000000
vn 0.000000 1.000000 0.000000
vn 0.000000 1.000000 0.000000
vn 0.000000 0.000000 -1.000000
vn 0.000000 0.000000 -1.000000
vn 0.000000 0.000000 -1.000000
vn 0.000002 0.000000 -1.000000
vn 0.000000 -1.000000 0.000006
vn 0.000000 -1.000000 0.000006
vn 0.000000 -1.000000 0.000006
vn 0.000000 -1.000000 0.000006
vn 0.000000 -0.000000 1.000000
vn -0.000000 -0.000000 1.000000
vn 0.000000 -0.000000 1.000000
vn 0.000000 0.000000 1.000000
vn 0.000000 1.000000 0.000000
vn 0.000000 1.000000 0.000000
vn 0.000000 -1.000000 0.000000
vn 0.000000 -1.000000 0.000000
vn 0.000000 -1.000000 0.000000
vn 0.000000 -1.000000 0.000000
vn 0.000000 -1.000000 -0.000000
vn 0.000000 -1.000000 -0.000000
vn 0.000000 -1.000000 -0.000000
vn 0.000000 -1.000000 -0.000000
vn 0.000000 -1.000000 -0.000000
vn 0.000000 1.000000 0.000000
vn 0.000000 1.000000 0.000000
vn 0.000000 1.000000 0.000000
vn 0.000000 1.000000 0.000000
vn 0.000000 1.000000 0.000000
vn 0.000000 1.000000 -0.000000
vn 0.000000 1.000000 -0.000000
vn 0.000000 1.000000 -0.000000
vn 0.000000 1.000000 -0.000000
vn 0.000000 1.000000 -0.000000
vn -1.000000 0.000000 0.000000
vn -1.000000 0.000000 0.000000
vn -1.000000 -0.000000 0.000000
vn -1.000000 0.000000 0.000000
vn -0.000003 -1.000000 -0.000000
vn -0.000003 -1.000000 -0.000000
vn -0.000003 -1.000000 -0.000000
vn -0.000003 -1.000000 -0.000000
vn 0.000000 -1.000000 0.000001
vn 0.000000 -1.000000 0.000001
vn 0.000000 -1.000000 0.000001
vn 0.000000 -1.000000 0.000001
vn 0.000003 -1.000000 -0.000000
vn 0.000003 -1.000000 -0.000000
vn 0.000003 -1.000000 -0.000000
vn 0.000003 -1.000000 -0.000000
vn 1.000000 0.000000 0.000000
vn 1.000000 -0.000000 0.000000
vn 1.000000 0.000000 -0.000001
vn 1.000000 0.000000 0.000000
vn 0.000000 1.000000 0.000000
vn 0.000000 0.000000 1.000000
vn 0.000000 0.000000 1.000000
vn 0.000000 0.000000 1.000000
vn 0.000000 0.000000 1.000000
vn -1.000000 0.000001 0.000000
vn -1.000000 0.000001 0.000000
vn -1.000000 0.000001 0.000000
vn -1.000000 0.000001 0.000000
vn 0.000000 0.000000 -1.000000
vn 0.000000 0.000000 -1.000000
vn 0.000000 0.000000 -1.000000
vn 0.000000 0.000000 -1.000000
vn 1.000000 0.000000 0.000000
vn 1.000000 0.000000 0.000000
vn 1.000000 0.000000 0.000000
vn 1.000000 0.000000 0.000000
vn 0.000000 0.000000 -1.000000
vn 0.000000 0.000000 -1.000000
vn 0.000000 0.000000 -1.000000
vn 0.000000 0.000000 -1.000000
vn 1.000000 -0.000000 0.000000
vn 1.000000 -0.000000 0.000000
vn 1.000000 -0.000000 0.000000
vn 1.000000 -0.000000 0.000000
vn -1.000000 0.000000 -0.000000
vn -1.000000 0.000000 -0.000000
vn -1.000000 0.000000 -0.000000
vn -1.000000 0.000000 -0.000000
vn -0.000001 0.000000 -1.000000
vn -0.000001 0.000000 -1.000000
vn -0.000001 0.000000 -1.000000
vn -0.000001 0.000000 -1.000000
vn 1.000000 -0.000000 0.000000
vn 1.000000 -0.000000 0.000000
vn 1.000000 -0.000000 0.000000
vn 1.000000 -0.000000 0.000000
vn 0.000000 -0.000000 1.000000
vn 0.000000 -0.000000 1.000000
vn 0.000000 -0.000000 1.000000
vn 0.000000 -0.000000 1.000000
vn 0.000000 -0.000000 1.000000
vn 0.000000 -0.000000 1.000000
vn 0.000000 -0.000000 1.000000
vn 0.000000 -0.000000 1.000000
vn -1.000000 0.000000 0.000000
vn -1.000000 0.000000 0.000000
vn -1.000000 0.000000 0.000000
vn -1.000000 0.000000 0.000000
vn 0.000000 1.000000 0.000000
vn 0.000000 1.000000 0.000000
vn 0.000000 -1.000000 0.000000
vn 0.000000 -1.000000 0.000000
vn 0.000000 -1.000000 0.000000
vn 0.000000 -1.000000 0.000000
vn 0.000000 -1.000000 0.000000
vn -0.707107 0.000000 0.707107
vn -0.707107 0.000000 0.707107
vn -0.707107 0.000000 0.707107
vn -0.707107 0.000000 0.707107
vn -0.707108 0.000002 0.707105
vn -0.707108 0.000002 0.707106
vn 0.707106 -0.000000 0.707107
vn 0.707106 -0.000000 0.707107
vn 0.707106 -0.000000 0.707107
vn 0.707106 -0.000000 0.707107
vn 0.707107 0.000000 0.707107
vn 0.707107 0.000000 0.707107
vn -0.707107 0.000000 -0.707107
vn -0.707107 0.000000 -0.707107
vn -0.707107 0.000000 -0.707106
vn -0.707107 0.000000 -0.707106
vn -0.707107 0.000000 -0.707106
vn -0.707107 0.000000 -0.707106
vn 0.707107 0.000000 -0.707107
vn 0.707107 0.000000 -0.707107
vn 0.707106 0.000000 -0.707107
vn 0.707106 0.000000 -0.707107
vn 0.707106 0.000000 -0.707107
vn 0.707106 0.000000 -0.707107
vn -0.000001 -0.000000 1.000000
vn 0.000000 -0.000002 1.000000
vn 0.000003 0.000000 -1.000000
vn 0.000000 0.000000 -1.000000
vn 1.000000 -0.000000 0.000000
vn 1.000000 0.000000 0.000000
vn -1.000000 0.000000 0.000000
vn -1.000000 -0.000005 0.000000
vn 0.000000 0.000000 -1.000000
vn 0.000000 0.000000 -1.000000
vn 0.000001 -0.000000 1.000000
vn 0.000001 0.000000 1.000000
vn -1.000000 0.000000 0.000000
vn -1.000000 0.000000 0.000000
vn 1.000000 0.000000 -0.000001
vn 1.000000 0.000000 0.000000
vn -0.000001 0.000000 1.000000
vn -0.000001 0.000000 1.000000
vn -1.000000 0.000000 0.000000
vn -1.000000 0.000000 0.000000
vn 1.000000 -0.000000 0.000000
vn 1.000000 -0.000000 0.000000
vn 0.000001 -0.000000 1.000000
vn 0.000001 -0.000000 1.000000
vn 0.000003 0.000000 -1.000000
vn 0.000003 0.000000 -1.000000
vn -1.000000 0.000000 0.000000
vn -1.000000 0.000000 0.000000
vn 0.000000 0.000000 -1.000000
vn 0.000000 0.000000 -1.000000
vn 1.000000 0.000000 -0.000001
vn 1.000000 0.000000 -0.000001
s off
g CornerTable
usemtl initialShadingGroup
f 29/72/1 30/31/2 31/32/3 58/40/4 57/73/5
f 33/76/6 32/33/7 34/34/8 60/44/9 59/77/10
s 1
f 23/18/11 4/2/12 47/46/13 48/26/14 22/17/15
s 2
f 5/27/16 1/29/17 2/82/18 6/56/19
s off
f 7/70/20 19/14/21 20/15/22 3/1/23
s 3
f 8/54/24 7/3/25 3/63/26 4/2/27
s 1
f 24/24/28 8/54/29 4/2/12 23/18/11
s off
f 12/7/30 11/6/31 6/56/32 2/82/33
f 39/84/34 38/37/35 40/38/36 64/52/37 63/85/38
s 1
f 1/29/39 15/10/40 14/30/41 53/50/42 54/61/43
f 5/27/44 16/11/45 15/10/40 1/29/39
f 9/4/46 16/11/45 5/27/44 50/47/47 49/28/48
s 5
f 10/5/49 18/60/50 17/12/51 9/65/52
s off
f 10/81/53 11/6/54 19/14/55 18/13/56
f 26/19/57 25/20/58 27/21/59 28/22/60
f 21/74/61 20/15/62 12/7/63 13/8/64
s 6
f 22/58/65 21/16/66 13/67/67 14/9/68
s 1
f 15/10/40 23/18/11 22/17/15 14/30/41
f 16/11/45 24/24/28 23/18/11 15/10/40
f 17/25/69 24/24/28 16/11/45 9/4/46
s off
f 20/15/70 19/14/71 25/20/72 26/19/73
f 19/14/74 11/6/75 27/21/76 25/20/77
f 11/6/78 12/7/79 28/22/80 27/21/81
f 12/7/82 20/15/83 26/19/84 28/22/85
f 18/13/86 19/14/87 30/31/88 29/72/89
f 19/14/90 7/70/91 31/32/92 30/31/93
f 3/1/94 20/15/95 32/33/96 33/76/97
f 20/15/98 21/74/99 34/34/100 32/33/101
f 6/56/102 11/6/103 36/35/104 35/79/105
f 11/6/106 10/81/107 37/36/108 36/35/109
f 13/8/110 12/7/111 38/37/112 39/84/113
f 12/7/114 2/82/115 40/38/116 38/37/117
s 1
f 43/23/118 44/55/119 8/54/29 24/24/28 17/25/69
s off
f 61/49/120 62/80/121 35/79/122 36/35/123 37/36/124
s 7
f 41/39/125 42/71/126 57/73/127 58/40/128
f 42/41/126 41/53/125 44/55/129 43/42/130
s 8
f 45/43/131 46/75/132 59/77/133 60/44/134
f 46/45/132 45/57/131 48/59/135 47/46/136
s 9
f 49/28/137 50/47/138 52/78/139 51/48/140
f 51/48/140 52/78/139 62/80/141 61/49/142
s 10
f 54/61/143 53/50/144 56/51/145 55/62/146
f 55/62/146 56/83/145 63/85/147 64/52/148
s 3
f 41/53/149 7/3/25 8/54/24 44/55/150
s 2
f 52/78/151 50/47/152 5/27/16 6/56/19
s 6
f 45/57/153 21/16/66 22/58/65 48/59/154
s 5
f 18/60/50 42/41/155 43/42/156 17/12/51
s 2
f 1/29/17 54/61/157 55/62/158 2/82/18
s 3
f 4/2/27 3/63/26 46/45/159 47/46/160
s 5
f 51/64/161 10/5/49 9/65/52 49/66/162
s 6
f 14/9/68 13/67/67 56/68/163 53/69/164
s 3
f 7/70/25 41/39/149 58/40/165 31/32/166
s 5
f 42/71/155 18/13/50 29/72/167 57/73/168
s 6
f 21/74/66 45/43/153 60/44/169 34/34/170
s 3
f 46/75/159 3/1/26 33/76/171 59/77/172
s 2
f 52/78/151 6/56/19 35/79/173 62/80/174
s 5
f 10/81/49 51/48/161 61/49/175 37/36/176
s 2
f 2/82/18 55/62/158 64/52/177 40/38/178
s 6
f 56/83/163 13/8/67 39/84/179 63/85/180
