# This file uses centimeters as units for non-parametric coordinates.

mtllib SideTable.mtl
g default
v 6.882462 4.895787 27.310234
v 6.882462 4.895787 22.702866
v 6.991286 6.175360 27.364645
v 6.991286 6.175360 22.648453
v -2.441098 6.175360 27.364645
v -2.441098 6.175360 22.648453
v -2.332273 4.895787 27.310232
v -2.332273 4.895787 22.702866
v -2.441098 6.175360 26.861586
v -2.332273 4.895787 26.818781
v 6.882462 4.895787 26.818781
v 6.991286 6.175360 26.861584
v -2.441098 6.175360 23.151514
v -2.332273 4.895787 23.194317
v 6.882462 4.895787 23.194319
v 6.991286 6.175360 23.151514
v -1.917076 6.175360 27.364645
v -1.820343 4.895787 27.310232
v -1.820343 4.895787 22.702866
v -1.917075 6.175360 22.648455
v -1.658455 6.161818 23.265953
v -1.658455 6.161818 26.747145
v 6.467264 6.175360 27.364645
v 6.370532 4.895787 27.310234
v 6.370532 4.895787 22.702866
v 6.467264 6.175360 22.648453
v 6.208643 6.161818 23.265953
v 6.208643 6.161818 26.747145
v -2.692148 5.895131 22.522928
v -2.692147 5.895131 23.052769
v -2.692147 5.895131 26.960333
v -2.692147 5.895131 27.490171
v -2.140232 5.895131 27.490170
v 6.690420 5.895131 27.490171
v 7.242337 5.895131 27.490170
v 7.242336 5.895131 26.960329
v 7.242337 5.895131 23.052767
v 7.242336 5.895131 22.522926
v 6.690420 5.895131 22.522930
v -2.140232 5.895131 22.522926
v -2.289614 5.707994 22.724195
v -2.289614 5.707994 23.211098
v -2.289614 5.707994 26.802002
v -2.289614 5.707994 27.288904
v -1.782423 5.707994 27.288902
v 6.332612 5.707994 27.288904
v 6.839802 5.707994 27.288902
v 6.839802 5.707994 26.802000
v 6.839802 5.707994 23.211098
v 6.839802 5.707994 22.724195
v 6.332612 5.707994 22.724195
v -1.782423 5.707994 22.724194
v 6.261062 4.869286 27.125340
v 6.261062 4.869286 26.673330
v 6.759309 4.869286 26.673330
v 6.759309 4.869286 27.125338
v 6.261062 4.869286 23.339769
v 6.759308 4.869286 23.339769
v 6.261062 4.869286 22.887762
v 6.759308 4.869286 22.887760
v -2.209120 4.869286 27.125338
v -2.209120 4.869286 26.673330
v -1.710874 4.869286 26.673328
v -1.710874 4.869286 27.125340
v -1.710874 4.869286 23.339767
v -2.209120 4.869286 23.339769
v -1.710874 4.869286 22.887760
v -2.209120 4.869286 22.887760
v 6.261062 0.111586 27.125340
v 6.261062 0.111586 26.673330
v 6.759309 0.111586 26.673330
v 6.759309 0.111586 27.125338
v 6.261062 0.111586 23.339769
v 6.759308 0.111586 23.339769
v 6.261062 0.111586 22.887762
v 6.759308 0.111586 22.887760
v -2.209120 0.111586 27.125338
v -2.209120 0.111586 26.673330
v -1.710874 0.111586 26.673328
v -1.710874 0.111586 27.125340
v -1.710874 0.111586 23.339767
v -1.710874 0.111586 22.887760
v -2.209120 0.111586 23.339769
v -2.209120 0.111586 22.887760
v 6.759309 1.647874 26.673330
v 6.261062 1.647874 26.673330
v 6.261062 1.647874 27.125338
v 6.759309 1.647874 27.125338
v 6.759308 1.641853 23.339769
v 6.759308 1.641853 22.887760
v 6.261062 1.641853 22.887762
v 6.261062 1.641853 23.339769
v 6.759309 1.407020 26.673330
v 6.261062 1.407020 26.673330
v 6.261062 1.407020 27.125340
v 6.759309 1.407020 27.125338
v 6.759309 1.400999 22.887760
v 6.261062 1.400999 22.887762
v 6.261062 1.400999 23.339769
v 6.759310 1.400999 23.339767
v -2.209120 1.395937 22.887760
v -2.209120 1.395937 23.339769
v -1.710874 1.395937 23.339767
v -1.710874 1.395937 22.887760
v -2.209120 1.635314 22.887760
v -2.209120 1.635314 23.339767
v -1.710874 1.635314 23.339767
v -1.710874 1.635314 22.887760
v -1.710874 1.641853 27.125340
v -1.710874 1.641853 26.673328
v -2.209120 1.641853 26.673330
v -2.209120 1.641853 27.125338
v -1.710874 1.407020 27.125340
v -1.710874 1.407020 26.673328
v -2.209120 1.407020 26.673330
v -2.209120 1.407020 27.125338
v -1.820343 5.000869 27.077507
v 6.370532 5.000869 27.077507
v 6.332612 5.590687 27.056177
v -1.782423 5.590687 27.056175
v 6.332612 5.590687 22.956923
v -1.782423 5.590687 22.956921
v 6.370532 5.000869 22.935593
v -1.820343 5.000869 22.935591
vt 0.375000 0.000000
vt 0.625000 0.000000
vt 0.375000 0.250000
vt 0.625000 0.250000
vt 0.375000 0.500000
vt 0.625000 0.500000
vt 0.375000 0.750000
vt 0.625000 0.750000
vt 0.375000 1.000000
vt 0.625000 1.000000
vt 0.875000 0.000000
vt 0.875000 0.250000
vt 0.125000 0.000000
vt 0.125000 0.250000
vt 0.430556 0.500000
vt 0.430556 0.750000
vt 0.430556 0.000000
vt 0.430556 1.000000
vt 0.430556 0.250000
vt 0.576389 0.500000
vt 0.576389 0.750000
vt 0.576389 0.000000
vt 0.576389 1.000000
vt 0.576389 0.250000
vt 0.150000 0.250000
vt 0.375000 0.475000
vt 0.150000 0.000000
vt 0.375000 0.775000
vt 0.430556 0.775000
vt 0.576389 0.775000
vt 0.625000 0.775000
vt 0.850000 0.000000
vt 0.625000 0.475000
vt 0.850000 0.250000
vt 0.576389 0.475000
vt 0.430556 0.475000
vt 0.350000 0.250000
vt 0.375000 0.275000
vt 0.350000 0.000000
vt 0.375000 0.975000
vt 0.430556 0.975000
vt 0.576389 0.975000
vt 0.625000 0.975000
vt 0.650000 0.000000
vt 0.625000 0.275000
vt 0.650000 0.250000
vt 0.576389 0.275000
vt 0.430556 0.275000
vt 0.625000 0.590528
vt 0.875000 0.159472
vt 0.576389 0.590528
vt 0.430556 0.590528
vt 0.125000 0.159472
vt 0.375000 0.590528
vt 0.150000 0.159472
vt 0.350000 0.159472
vt 0.375000 0.159472
vt 0.430556 0.159472
vt 0.576389 0.159472
vt 0.625000 0.159472
vt 0.650000 0.159472
vt 0.850000 0.159472
vt 0.625000 0.672762
vt 0.875000 0.077238
vt 0.576389 0.672762
vt 0.430556 0.672762
vt 0.125000 0.077238
vt 0.375000 0.672762
vt 0.150000 0.077238
vt 0.350000 0.077238
vt 0.375000 0.077238
vt 0.430556 0.077238
vt 0.576389 0.077238
vt 0.625000 0.077238
vt 0.650000 0.077238
vt 0.850000 0.077238
vt 0.430556 1.000000
vt 0.375000 1.000000
vt 0.375000 0.975000
vt 0.576389 1.000000
vt 0.625000 0.975000
vt 0.625000 1.000000
vt 0.375000 0.750000
vt 0.430556 0.750000
vt 0.375000 0.775000
vt 0.576389 0.750000
vt 0.625000 0.750000
vt 0.625000 0.775000
vt 0.375000 0.975000
vt 0.430556 0.975000
vt 0.430556 1.000000
vt 0.375000 1.000000
vt 0.576389 1.000000
vt 0.576389 0.975000
vt 0.625000 0.975000
vt 0.625000 1.000000
vt 0.375000 0.750000
vt 0.430556 0.750000
vt 0.430556 0.775000
vt 0.375000 0.775000
vt 0.625000 0.775000
vt 0.576389 0.775000
vt 0.576389 0.750000
vt 0.625000 0.750000
vt 0.430556 1.000000
vt 0.430556 0.975000
vt 0.375000 0.975000
vt 0.375000 1.000000
vt 0.576389 1.000000
vt 0.625000 1.000000
vt 0.625000 0.975000
vt 0.576389 0.975000
vt 0.430556 1.000000
vt 0.430556 0.975000
vt 0.375000 0.975000
vt 0.375000 1.000000
vt 0.625000 1.000000
vt 0.625000 0.975000
vt 0.576389 0.975000
vt 0.576389 1.000000
vt 0.625000 0.750000
vt 0.576389 0.750000
vt 0.576389 0.775000
vt 0.625000 0.775000
vt 0.625000 0.750000
vt 0.576389 0.750000
vt 0.576389 0.775000
vt 0.625000 0.775000
vt 0.375000 0.775000
vt 0.430556 0.775000
vt 0.430556 0.750000
vt 0.375000 0.750000
vt 0.375000 0.775000
vt 0.430556 0.775000
vt 0.430556 0.750000
vt 0.375000 0.750000
vt 0.150000 0.000000
vt 0.350000 0.000000
vt 0.350000 0.077238
vt 0.150000 0.077238
vt 0.850000 0.077238
vt 0.650000 0.077238
vt 0.650000 0.000000
vt 0.850000 0.000000
vn 0.970138 -0.242555 0.000000
vn 0.963646 -0.267182 0.000000
vn 0.744820 0.667265 0.000000
vn 0.744818 0.667267 0.000000
vn -0.009497 0.999906 -0.009891
vn -0.016263 0.999867 -0.001315
vn -0.001499 0.999992 -0.003790
vn -0.001016 0.999787 -0.020639
vn -0.744821 0.667264 0.000000
vn -0.744821 0.667265 0.000000
vn -0.963646 -0.267181 0.000000
vn -0.970137 -0.242556 0.000000
vn 0.000000 -1.000000 0.000000
vn 0.000000 -1.000000 0.000000
vn 0.000000 -1.000000 0.000000
vn 0.000000 -1.000000 0.000000
vn -0.000002 -0.021031 -0.999779
vn -0.000000 -0.055264 -0.998472
vn 0.000000 0.408800 -0.912624
vn -0.000003 0.408794 -0.912627
vn 0.000000 -0.055266 0.998472
vn 0.000004 -0.021032 0.999779
vn 0.000006 0.408801 0.912624
vn -0.000000 0.408800 0.912624
vn -0.744820 0.667265 0.000000
vn -0.963647 -0.267180 0.000000
vn 0.000000 -1.000000 0.000000
vn 0.000000 -1.000000 -0.000000
vn 0.000000 -1.000000 -0.000000
vn 0.000000 -1.000000 0.000000
vn 0.963646 -0.267182 0.000000
vn 0.744820 0.667265 0.000000
vn -0.016263 0.999867 0.001316
vn -0.001499 0.999992 0.003790
vn -0.744821 0.667264 0.000000
vn -0.970138 -0.242553 0.000000
vn 0.000000 -1.000000 0.000000
vn 0.000000 -1.000000 0.000000
vn 0.000000 -1.000000 0.000000
vn 0.000000 -1.000000 0.000000
vn 0.970138 -0.242553 0.000000
vn 0.744818 0.667267 0.000000
vn -0.009497 0.999906 0.009892
vn -0.001015 0.999786 0.020639
vn 0.000004 -0.021026 0.999779
vn 0.000000 -0.055266 0.998472
vn -0.000000 0.408799 0.912624
vn 0.000006 0.408798 0.912625
vn 0.000000 -1.000000 0.000000
vn 0.000000 -1.000000 0.000000
vn 0.000000 -1.000000 0.000000
vn 0.000000 -1.000000 0.000000
vn 0.000000 -1.000000 -0.000000
vn 0.000000 -1.000000 -0.000000
vn 0.000000 -1.000000 0.000000
vn 0.000000 -1.000000 0.000000
vn 0.000000 -1.000000 0.000000
vn 0.000000 -1.000000 0.000000
vn 0.000000 -1.000000 0.000000
vn 0.000000 -1.000000 0.000000
vn 0.000000 0.408800 -0.912624
vn -0.000000 -0.055264 -0.998472
vn -0.000001 -0.021030 -0.999779
vn 0.000000 0.408802 -0.912623
vn 0.016263 0.999867 0.001316
vn 0.001499 0.999992 0.003790
vn 0.001015 0.999787 0.020639
vn 0.009497 0.999906 0.009893
vn 0.016263 0.999867 -0.001316
vn 0.001499 0.999992 -0.003790
vn 0.001015 0.999786 -0.020639
vn 0.009497 0.999906 -0.009892
vn 0.000000 -1.000000 0.000000
vn 0.000000 -1.000000 0.000000
vn 0.000000 -1.000000 0.000000
vn 0.000000 -1.000000 0.000000
vn -0.910169 -0.414238 0.000000
vn -0.920433 -0.390901 0.000000
vn -0.920432 -0.390902 0.000000
vn -0.910169 -0.414237 0.000000
vn 0.000000 -0.264483 0.964390
vn 0.000000 -0.679307 0.733854
vn 0.000000 -0.679307 0.733854
vn 0.000000 -0.264486 0.964390
vn 0.910170 -0.414236 0.000000
vn 0.920433 -0.390901 0.000000
vn 0.920432 -0.390902 0.000000
vn 0.910168 -0.414239 0.000000
vn 0.000000 -0.264482 -0.964391
vn 0.000000 -0.679305 -0.733856
vn -0.000000 -0.679305 -0.733856
vn -0.000004 -0.264486 -0.964390
vn -0.998624 0.052450 0.000000
vn -0.998624 0.052451 0.000000
vn -0.998624 0.052451 0.000000
vn -0.998624 0.052450 0.000000
vn 0.000000 0.026251 0.999655
vn 0.000000 0.026251 0.999655
vn 0.000000 0.036142 0.999347
vn 0.000000 0.036142 0.999347
vn 0.000000 0.036142 0.999347
vn 0.000000 0.036142 0.999347
vn 0.000000 0.026254 0.999655
vn 0.000000 0.026254 0.999655
vn 0.998624 0.052452 0.000000
vn 0.998623 0.052452 0.000000
vn 0.998624 0.052452 0.000000
vn 0.998623 0.052452 0.000000
vn 0.000000 0.026253 -0.999655
vn 0.000000 0.026253 -0.999655
vn 0.000000 0.036140 -0.999347
vn 0.000000 0.036140 -0.999347
vn 0.000000 0.036140 -0.999347
vn 0.000000 0.036140 -0.999347
vn -0.000005 0.026252 -0.999655
vn -0.000005 0.026252 -0.999655
vn 0.210373 -0.977621 0.000000
vn 0.210373 -0.977621 0.000000
vn 0.210373 -0.977621 0.000000
vn 0.210373 -0.977621 0.000000
vn 0.000000 -0.989884 0.141879
vn 0.000000 -0.989884 0.141879
vn 0.000000 -0.989884 0.141879
vn 0.000000 -0.989884 0.141879
vn 0.210373 -0.977621 0.000000
vn 0.210373 -0.977621 0.000000
vn 0.210373 -0.977621 0.000000
vn 0.210373 -0.977621 0.000000
vn -0.000001 -0.989884 -0.141880
vn -0.000001 -0.989884 -0.141880
vn -0.000001 -0.989884 -0.141880
vn -0.000001 -0.989884 -0.141880
vn 0.210371 -0.977622 0.000000
vn 0.210371 -0.977622 0.000000
vn 0.210371 -0.977622 0.000000
vn 0.210371 -0.977622 0.000000
vn -0.210374 -0.977621 0.000000
vn -0.210374 -0.977621 0.000000
vn -0.210374 -0.977621 0.000000
vn -0.210374 -0.977621 0.000000
vn 0.000000 -0.989884 0.141882
vn 0.000000 -0.989884 0.141882
vn 0.000000 -0.989884 0.141882
vn 0.000000 -0.989884 0.141882
vn -0.210373 -0.977621 0.000000
vn -0.210373 -0.977621 0.000000
vn -0.210373 -0.977621 0.000000
vn -0.210373 -0.977621 0.000000
vn -0.210373 -0.977621 0.000000
vn -0.210373 -0.977621 0.000000
vn -0.210373 -0.977621 0.000000
vn -0.210373 -0.977621 0.000000
vn 0.000000 -0.989884 -0.141880
vn 0.000000 -0.989884 -0.141880
vn 0.000000 -0.989884 -0.141880
vn 0.000000 -0.989884 -0.141880
vn 0.000000 -0.989884 0.141882
vn 0.000000 -0.989884 0.141882
vn 0.000000 -0.989884 0.141882
vn 0.000000 -0.989884 0.141882
vn 0.000000 -0.989884 -0.141880
vn 0.000000 -0.989884 -0.141880
vn 0.000000 -0.989884 -0.141880
vn 0.000000 -0.989884 -0.141880
vn -1.000000 -0.000000 0.000000
vn -1.000000 -0.000000 0.000000
vn -1.000000 -0.000000 0.000000
vn -1.000000 -0.000000 0.000000
vn 0.000000 0.000000 -1.000000
vn 0.000000 0.000000 -1.000000
vn 0.000000 0.000000 -1.000000
vn 0.000000 0.000000 -1.000000
vn 1.000000 0.000000 0.000000
vn 1.000000 0.000000 0.000000
vn 1.000000 0.000000 0.000000
vn 1.000000 0.000001 0.000000
vn 0.000005 -0.000000 1.000000
vn 0.000005 -0.000000 1.000000
vn 0.000002 0.000002 1.000000
vn 0.000005 -0.000000 1.000000
vn 0.000000 0.000000 1.000000
vn 0.000000 0.000000 1.000000
vn 0.000000 0.000000 1.000000
vn 0.000000 0.000000 1.000000
vn -1.000000 0.000000 0.000000
vn -1.000000 0.000000 0.000000
vn -1.000000 0.000000 0.000000
vn -1.000000 0.000000 0.000000
vn -0.000005 0.000000 -1.000000
vn -0.000005 0.000000 -1.000000
vn -0.000005 0.000000 -1.000000
vn -0.000002 0.000000 -1.000000
vn 1.000000 0.000000 0.000000
vn 1.000000 0.000000 0.000000
vn 1.000000 0.000001 -0.000000
vn 1.000000 0.000000 -0.000000
vn -1.000000 0.000000 0.000000
vn -1.000000 0.000000 0.000000
vn -1.000000 -0.000000 0.000000
vn -1.000000 0.000000 0.000000
vn -0.000005 0.000000 -1.000000
vn -0.000005 0.000000 -1.000000
vn -0.000005 0.000000 -1.000000
vn -0.000005 0.000000 -1.000000
vn 1.000000 0.000000 0.000000
vn 1.000000 0.000000 0.000000
vn 1.000000 0.000000 0.000000
vn 1.000000 0.000000 0.000000
vn -0.000005 0.000000 1.000000
vn -0.000005 0.000000 1.000000
vn -0.000005 0.000000 1.000000
vn -0.000002 0.000002 1.000000
vn 1.000000 0.000000 0.000000
vn 1.000000 0.000000 0.000000
vn 1.000000 0.000000 0.000000
vn 1.000000 0.000000 0.000000
vn 0.000000 -0.000000 1.000000
vn 0.000000 -0.000000 1.000000
vn 0.000000 -0.000000 1.000000
vn 0.000000 -0.000000 1.000000
vn -1.000000 0.000000 -0.000000
vn -1.000000 0.000000 -0.000000
vn -1.000000 -0.000000 -0.000000
vn -1.000000 -0.000000 -0.000000
vn 0.000000 0.000000 -1.000000
vn 0.000000 0.000000 -1.000000
vn 0.000000 0.000000 -1.000000
vn 0.000000 0.000000 -1.000000
vn 0.000002 0.000003 1.000000
vn 0.000006 0.000001 1.000000
vn 1.000000 0.000000 0.000000
vn 1.000000 0.000001 0.000000
vn 1.000000 0.000001 -0.000000
vn 1.000000 -0.000000 -0.000001
vn -0.000006 0.000000 -1.000000
vn -0.000001 0.000000 -1.000000
vn 0.000000 0.000000 -1.000000
vn 0.000000 0.000000 -1.000000
vn 0.000000 0.000000 -1.000000
vn 0.000000 0.000000 -1.000000
vn -1.000000 0.000000 0.000000
vn -1.000000 0.000000 0.000000
vn -1.000000 0.000000 0.000000
vn -1.000000 0.000000 0.000000
vn 0.000006 0.000000 1.000000
vn 0.000006 0.000000 1.000000
vn 1.000000 0.000000 0.000000
vn 1.000000 0.000000 0.000000
vn -0.000006 0.000000 -1.000000
vn -0.000006 0.000000 -1.000000
vn -1.000000 0.000000 0.000000
vn -1.000000 0.000000 0.000000
vn -1.000000 0.000000 0.000000
vn -1.000000 0.000000 0.000000
vn 0.000003 0.000001 1.000000
vn 0.000003 0.000001 1.000000
vn 0.000003 0.000001 1.000000
vn 0.000003 0.000001 1.000000
vn 1.000000 -0.000001 -0.000001
vn 1.000000 -0.000001 -0.000001
vn -1.000000 -0.000000 0.000000
vn -1.000000 -0.000000 -0.000000
vn -1.000000 0.000000 0.000000
vn -1.000000 0.000000 0.000000
vn 0.000003 0.000000 1.000000
vn 0.000003 0.000000 1.000000
vn 0.000003 0.000000 1.000000
vn 0.000003 0.000000 1.000000
vn 1.000000 0.000000 -0.000000
vn 1.000000 0.000000 -0.000000
vn 1.000000 0.000000 -0.000000
vn 1.000000 0.000000 -0.000000
vn 0.000000 0.000000 -1.000000
vn 0.000000 0.000000 -1.000000
vn 0.000000 0.000000 -1.000000
vn 0.000000 0.000000 -1.000000
vn -1.000000 -0.000000 0.000000
vn -1.000000 0.000000 0.000000
vn -0.000006 0.000000 1.000000
vn -0.000002 0.000003 1.000000
vn 1.000000 0.000000 0.000000
vn 1.000000 0.000000 0.000000
vn 1.000000 0.000000 0.000000
vn 1.000000 0.000000 0.000000
vn -0.000006 0.000000 -1.000000
vn -0.000006 0.000000 -1.000000
vn -0.000006 0.000000 -1.000000
vn -0.000006 0.000000 -1.000000
vn -1.000000 0.000000 0.000000
vn -1.000000 0.000000 0.000000
vn -0.000006 0.000000 1.000000
vn -0.000006 0.000000 1.000000
vn -0.000820 1.000000 0.000000
vn -0.000820 1.000000 0.000000
vn -0.000792 0.999998 -0.001659
vn -0.000792 0.999998 -0.001659
vn 0.000635 -1.000000 0.000000
vn 0.000635 -1.000000 0.000000
vn 0.000355 -0.999997 0.002259
vn 0.000355 -0.999997 0.002259
vn 0.000000 0.999998 -0.001962
vn 0.000000 0.999998 -0.001962
vn 0.000000 0.999998 -0.001962
vn 0.000000 0.999998 -0.001962
vn 0.000000 -0.999995 0.003324
vn 0.000000 -0.999995 0.003324
vn 0.000000 -0.999995 0.003324
vn 0.000000 -0.999995 0.003324
vn 0.000000 -0.999998 0.001806
vn 0.000000 -0.999998 0.001806
vn 0.000000 -0.999998 0.001806
vn 0.000000 -0.999998 0.001806
vn 0.000000 0.999998 -0.001806
vn 0.000000 0.999998 -0.001806
vn 0.000000 0.999998 -0.001806
vn 0.000000 0.999998 -0.001806
vn -0.000755 1.000000 0.000000
vn -0.000784 0.999998 -0.001659
vn -0.000784 0.999998 -0.001659
vn -0.000755 1.000000 0.000000
vn 0.000280 -0.999997 0.002259
vn 0.000000 -1.000000 0.000000
vn 0.000000 -1.000000 0.000000
vn 0.000280 -0.999997 0.002259
vn 0.000000 0.911399 0.411523
vn 0.000000 0.911399 0.411523
vn 0.000000 0.911399 0.411523
vn 0.000000 0.911399 0.411523
vn -0.998542 -0.053972 0.001417
vn -0.998541 -0.053972 0.001417
vn -0.998542 -0.053972 0.001417
vn -0.998541 -0.053972 0.001417
vn 0.000000 -0.892975 0.450107
vn 0.000000 -0.892974 0.450107
vn 0.000000 -0.892975 0.450107
vn 0.000000 -0.892975 0.450107
vn 0.998541 -0.053971 0.001417
vn 0.998541 -0.053971 0.001417
vn 0.998541 -0.053971 0.001417
vn 0.998541 -0.053971 0.001417
vn 0.000000 -0.892975 -0.450106
vn 0.000000 -0.892975 -0.450106
vn 0.000000 -0.892975 -0.450106
vn 0.000000 -0.892975 -0.450106
vn -0.998541 -0.053971 -0.001418
vn -0.998542 -0.053971 -0.001418
vn -0.998541 -0.053971 -0.001418
vn -0.998542 -0.053971 -0.001418
vn 0.000000 0.911399 -0.411523
vn 0.000000 0.911399 -0.411523
vn 0.000000 0.911399 -0.411523
vn 0.000000 0.911399 -0.411523
vn 0.998542 -0.053971 -0.001417
vn 0.998542 -0.053971 -0.001417
vn 0.998542 -0.053971 -0.001417
vn 0.998542 -0.053971 -0.001417
s 1
g SideTable
usemtl initialShadingGroup
f 35/57/1 36/58/2 12/19/3 3/3/4
s 2
f 3/3/5 12/19/6 28/48/7 23/38/8
s 3
f 5/5/9 9/15/10 31/52/11 32/54/12
s off
f 69/89/13 70/90/14 71/91/15 72/92/16
s 4
f 38/60/17 39/61/18 26/46/19 4/4/20
s 5
f 34/56/21 35/57/22 3/3/23 23/37/24
s 3
f 9/15/10 13/20/25 30/51/26 31/52/11
s 6
f 55/77/27 54/41/28 57/42/29 58/80/30
s 1
f 12/19/3 36/58/2 37/59/31 16/24/32
s 2
f 28/48/7 12/19/6 16/24/33 27/47/34
s 3
f 13/20/25 6/6/35 29/49/36 30/51/26
s off
f 74/93/37 73/94/38 75/95/39 76/96/40
s 1
f 16/24/32 37/59/31 38/60/41 4/4/42
s 2
f 27/47/34 16/24/33 4/4/43 26/45/44
s 5
f 32/53/45 33/55/46 17/25/47 5/14/48
s off
f 77/97/49 78/98/50 79/99/51 80/100/52
s 6
f 65/30/53 63/29/54 62/84/55 66/86/56
s off
f 82/101/57 81/102/58 83/103/59 84/104/60
s 4
f 20/34/61 40/62/62 29/50/63 6/12/64
s 2
f 13/20/65 21/35/66 20/33/67 6/6/68
f 9/15/69 22/36/70 21/35/66 13/20/65
f 17/26/71 22/36/70 9/15/69 5/5/72
s 5
f 33/55/46 34/56/21 23/37/24 17/25/47
s 6
f 64/85/73 63/29/54 54/41/28 53/79/74
f 57/42/29 54/41/28 63/29/54 65/30/53
f 59/81/75 57/42/29 65/30/53 67/88/76
s 4
f 26/46/19 39/61/18 40/62/62 20/34/61
s 2
f 21/35/66 27/47/34 26/45/44 20/33/67
f 22/36/70 28/48/7 27/47/34 21/35/66
f 23/38/8 28/48/7 22/36/70 17/26/71
s 3
f 30/51/26 29/49/36 41/63/77 42/65/78
f 31/52/11 30/51/26 42/65/78 43/66/79
f 32/54/12 31/52/11 43/66/79 44/68/80
s 5
f 44/67/81 45/69/82 33/55/46 32/53/45
f 45/69/82 46/70/83 34/56/21 33/55/46
f 46/70/83 47/71/84 35/57/22 34/56/21
s 1
f 47/71/85 48/72/86 36/58/2 35/57/1
f 37/59/31 36/58/2 48/72/86 49/73/87
f 38/60/41 37/59/31 49/73/87 50/74/88
s 4
f 50/74/89 51/75/90 39/61/18 38/60/17
f 40/62/62 39/61/18 51/75/90 52/76/91
f 29/50/63 40/62/62 52/76/91 41/64/92
s 3
f 42/65/78 41/63/77 8/8/93 14/21/94
f 43/66/79 42/65/78 14/21/94 10/16/95
f 44/68/80 43/66/79 10/16/95 7/7/96
s 5
f 7/13/97 18/27/98 45/69/82 44/67/81
s off
f 117/137/99 118/138/100 119/139/101 120/140/102
s 5
f 24/39/103 1/1/104 47/71/84 46/70/83
s 1
f 1/1/105 11/17/106 48/72/86 47/71/85
f 49/73/87 48/72/86 11/17/106 15/22/107
f 50/74/88 49/73/87 15/22/107 2/2/108
s 4
f 2/2/109 25/44/110 51/75/90 50/74/89
s off
f 122/141/111 121/142/112 123/143/113 124/144/114
s 4
f 41/64/92 52/76/91 19/32/115 8/11/116
s off
f 11/18/117 1/9/118 56/78/119 55/77/120
f 1/9/121 24/40/122 53/79/123 56/78/124
f 15/23/125 11/18/126 55/77/127 58/80/128
f 25/43/129 2/10/130 60/82/131 59/81/132
f 2/10/133 15/23/134 58/80/135 60/82/136
f 7/7/137 10/16/138 62/84/139 61/83/140
f 18/28/141 7/7/142 61/83/143 64/85/144
f 10/16/145 14/21/146 66/86/147 62/84/148
f 14/21/149 8/8/150 68/87/151 66/86/152
f 8/8/153 19/31/154 67/88/155 68/87/156
f 24/40/157 18/28/158 64/85/159 53/79/160
f 19/31/161 25/43/162 59/81/163 67/88/164
f 53/79/165 54/41/166 86/106/167 87/107/168
f 54/41/169 55/77/170 85/105/171 86/106/172
s 9
f 55/77/173 56/78/174 88/108/175 85/105/176
s 10
f 56/78/177 53/79/178 87/107/179 88/108/180
s off
f 58/80/181 57/42/182 92/112/183 89/109/184
f 57/42/185 59/81/186 91/111/187 92/112/188
s 11
f 59/81/189 60/82/190 90/110/191 91/111/192
s 9
f 60/82/193 58/80/194 89/109/195 90/110/196
s 13
f 61/83/197 62/84/198 111/131/199 112/132/200
s off
f 62/84/201 63/29/202 110/130/203 111/131/204
f 63/29/205 64/85/206 109/129/207 110/130/208
s 10
f 64/85/209 61/83/210 112/132/211 109/129/212
s off
f 67/88/213 65/30/214 107/127/215 108/128/216
f 65/30/217 66/86/218 106/126/219 107/127/220
s 13
f 66/86/221 68/87/222 105/125/223 106/126/224
s 11
f 68/87/225 67/88/226 108/128/227 105/125/228
s 10
f 88/108/180 87/107/179 95/115/229 96/116/230
s 9
f 85/105/176 88/108/175 96/116/231 93/113/232
f 90/110/196 89/109/195 100/120/233 97/117/234
s 11
f 91/111/192 90/110/191 97/117/235 98/118/236
s off
f 94/114/237 93/113/238 71/91/239 70/90/240
f 95/115/241 94/114/242 70/90/243 69/89/244
s 10
f 96/116/230 95/115/229 69/89/245 72/92/246
s 9
f 93/113/232 96/116/231 72/92/247 71/91/248
s 11
f 98/118/236 97/117/235 76/96/249 75/95/250
s off
f 99/119/251 98/118/252 75/95/253 73/94/254
f 100/120/255 99/119/256 73/94/257 74/93/258
s 9
f 97/117/234 100/120/233 74/93/259 76/96/260
s 13
f 102/122/261 101/121/262 84/104/263 83/103/264
s off
f 103/123/265 102/122/266 83/103/267 81/102/268
f 104/124/269 103/123/270 81/102/271 82/101/272
s 11
f 101/121/273 104/124/274 82/101/275 84/104/276
s 13
f 106/126/224 105/125/223 101/121/262 102/122/261
s 11
f 105/125/228 108/128/227 104/124/274 101/121/273
s 13
f 112/132/200 111/131/199 115/135/277 116/136/278
s 10
f 109/129/212 112/132/211 116/136/279 113/133/280
s off
f 114/134/281 113/133/282 80/100/283 79/99/284
f 115/135/285 114/134/286 79/99/287 78/98/288
s 13
f 116/136/278 115/135/277 78/98/289 77/97/290
s 10
f 113/133/280 116/136/279 77/97/291 80/100/292
s 11
f 91/111/192 98/118/236 104/124/274 108/128/227
s 17
f 91/111/293 108/128/294 107/127/295 92/112/296
s 18
f 104/124/297 98/118/298 99/119/299 103/123/300
s off
f 107/127/301 106/126/302 111/131/303 110/130/304
s 13
f 106/126/224 102/122/261 115/135/277 111/131/199
s off
f 102/122/305 103/123/306 114/134/307 115/135/308
f 93/113/309 94/114/310 99/119/311 100/120/312
s 9
f 85/105/176 93/113/232 100/120/233 89/109/195
s off
f 86/106/313 85/105/314 89/109/315 92/112/316
s 10
f 95/115/229 87/107/179 109/129/212 113/133/280
s 17
f 87/107/317 86/106/318 110/130/319 109/129/320
s 18
f 94/114/321 95/115/322 113/133/323 114/134/324
s 17
f 92/112/296 107/127/295 110/130/319 86/106/318
s 18
f 103/123/300 99/119/299 94/114/321 114/134/324
s off
f 18/27/325 24/39/326 118/138/327 117/137/328
f 24/39/329 46/70/330 119/139/331 118/138/332
f 46/70/333 45/69/334 120/140/335 119/139/336
f 45/69/337 18/27/338 117/137/339 120/140/340
f 52/76/341 51/75/342 121/142/343 122/141/344
f 51/75/345 25/44/346 123/143/347 121/142/348
f 25/44/349 19/32/350 124/144/351 123/143/352
f 19/32/353 52/76/354 122/141/355 124/144/356
