# This file uses centimeters as units for non-parametric coordinates.

mtllib stool.mtl
g default
v -4.905437 2.267330 3.539447
v -4.118987 2.118619 3.571388
v -4.118987 2.267330 4.176019
v 0.279277 2.118619 3.571388
v 1.065731 2.267330 3.571388
v 0.279277 2.267330 4.203942
v -4.118988 4.145612 3.704145
v -4.905442 4.004294 3.846733
v -4.118988 4.004294 4.510501
v 1.065731 4.004294 3.654715
v 0.279278 4.145612 3.658669
v 0.279278 4.004294 4.342521
v -4.118987 4.004294 -0.718584
v -4.905437 4.004294 -0.031499
v -4.118987 4.145612 -0.054598
v 1.065731 4.004294 -0.058409
v 0.279277 4.004294 -0.718572
v 0.279277 4.145612 -0.058414
v -4.118987 2.118619 -0.012978
v -4.905437 2.267330 -0.017522
v -4.118987 2.267330 -0.650208
v 1.065731 2.267330 -0.012978
v 0.279277 2.118619 -0.012978
v 0.279277 2.267330 -0.650208
v -4.119888 3.625620 4.468947
v -4.914444 3.625620 3.802467
v -4.914439 3.625620 -0.031051
v -4.119887 3.625620 -0.716963
v 0.280177 3.625620 -0.716956
v 1.074732 3.625620 -0.053423
v 1.074732 3.625620 3.644992
v 0.280178 3.625620 4.331493
v -4.119887 2.690359 4.060623
v -4.914443 2.690358 3.417890
v -4.914439 2.690358 -0.042751
v -4.119887 2.690358 -0.665499
v 0.280177 2.690358 -0.665498
v 1.074732 2.690358 -0.019331
v 1.074732 2.690358 3.582479
v 0.280177 2.690358 4.204539
v -3.489522 0.404834 3.058282
v -4.069329 0.648786 3.532627
v -0.270755 0.404835 3.058282
v 0.309052 0.648787 3.532627
v -3.489522 2.071321 3.058282
v -4.069329 1.827368 3.532627
v -0.270755 2.071321 3.058282
v 0.309052 1.827368 3.532627
v -4.069329 1.827368 0.009060
v -3.489522 2.071321 0.483405
v 0.309052 1.827368 0.009060
v -0.270755 2.071321 0.483405
v -3.489522 0.404834 0.483405
v -4.069329 0.648787 0.009060
v -0.270755 0.404835 0.483405
v 0.309052 0.648787 0.009060
v -4.119887 2.416740 4.084934
v 0.280177 2.416739 4.196629
v -4.914441 2.416739 3.444294
v -4.914439 2.416739 -0.031826
v 1.074732 2.416739 3.572060
v 1.074732 2.416739 -0.013649
v 0.280177 2.416739 -0.656921
v -4.119887 2.416739 -0.656921
v -4.876850 2.171562 3.309967
v -4.876850 2.171562 0.248444
v -3.798368 2.171562 4.187295
v -0.041342 2.171562 4.187295
v -4.876851 2.285687 4.134187
v -4.882038 2.690358 4.014301
v 1.037142 2.171562 3.309967
v 1.037142 2.171562 0.248444
v 1.037142 2.285687 4.187295
v 1.042326 2.690358 4.204361
v -4.876853 4.092669 3.500527
v -4.876851 4.092669 0.234541
v -0.041341 4.092669 4.315527
v -3.798368 4.092669 4.410912
v 1.037142 4.092669 3.383904
v 1.037142 4.092669 0.212402
v -4.882034 2.690358 -0.641220
v -4.876850 2.285687 -0.628884
v -3.798368 4.092669 -0.696489
v -0.041342 4.092669 -0.696465
v 1.042326 2.690358 -0.641216
v 1.037142 2.285687 -0.628884
v -0.041342 2.171562 -0.628884
v -3.798368 2.171562 -0.628884
v -4.876853 3.989190 4.512559
v 1.037142 3.989190 4.292747
v -4.876850 3.989190 -0.696494
v 1.037142 3.989190 -0.696460
v 0.280178 3.877062 4.353432
v -4.119888 3.877062 4.542435
v -4.882038 3.625620 4.465237
v -4.914444 3.877062 3.871887
v -4.914439 3.877062 -0.028343
v -4.119887 3.877062 -0.725540
v -4.882034 3.625620 -0.692032
v 0.280177 3.877062 -0.725533
v 1.074732 3.877062 -0.059105
v 1.042326 3.625620 -0.692005
v 1.074732 3.877062 3.655411
v 1.042327 3.625620 4.283554
v -4.119888 3.161686 4.248486
v 0.280178 3.161685 4.265678
v -4.914444 3.161685 3.594208
v -4.914439 3.161685 -0.039173
v -4.119887 3.161685 -0.691231
v 0.280177 3.161685 -0.691227
v 1.074732 3.161685 -0.036377
v 1.074732 3.161685 3.613735
v -1.880138 0.648787 4.119888
v -4.072921 1.238077 3.537788
v 0.312644 1.238078 3.537788
v -1.880138 1.827368 4.119888
v -1.880138 1.827368 -0.578201
v -4.072921 1.238077 0.003899
v 0.312644 1.238078 0.003899
v -1.880138 0.648787 -0.578201
v 1.038782 0.648787 1.770844
v 1.038782 1.827368 1.770844
v -4.799059 0.648786 1.770844
v -4.799059 1.827368 1.770844
v -1.880138 0.397274 0.038307
v -4.048974 0.397274 1.770844
v 0.288697 0.397274 1.770844
v -1.880138 0.397274 3.503380
v 0.288697 2.078882 1.770844
v -1.880138 2.078882 3.503380
v -1.880138 2.078882 0.038307
v -4.048974 2.078882 1.770844
v -4.058553 0.426435 3.517143
v -4.058553 0.426435 0.024544
v 0.298276 0.426436 3.517143
v 0.298276 0.426436 0.024544
v -4.058553 2.049720 3.517143
v -4.058553 2.049720 0.024544
v 0.298276 2.049720 3.517143
v 0.298276 2.049720 0.024544
v -4.882036 2.416740 4.043640
v 1.042326 2.416739 4.191162
v -4.882034 2.416739 -0.632751
v 1.042326 2.416739 -0.632751
v -4.867633 2.188632 4.180420
v 1.027924 2.188632 4.180420
v -4.867635 4.075600 4.452148
v 1.027925 4.075600 4.285625
v -4.867633 4.075600 -0.689372
v 1.027924 4.075600 -0.689331
v -4.867633 2.188632 -0.622009
v 1.027924 2.188632 -0.622009
v -4.882038 3.877062 4.546539
v -4.882034 3.877062 -0.700500
v 1.042326 3.877062 -0.700470
v 1.042327 3.877062 4.296753
v -4.882038 3.161685 4.221329
v -4.882034 3.161685 -0.666626
v 1.042326 3.161685 -0.666611
v 1.042327 3.161685 4.243958
v -1.880138 1.238077 4.126770
v -1.880138 1.238077 -0.585083
v 1.043571 1.238078 1.770844
v -4.803848 1.238077 1.770844
v -1.880138 0.387554 1.770844
v -1.880138 2.088602 1.770844
v -4.784691 0.426435 1.770844
v -1.880138 0.426435 4.099243
v 1.024414 0.426436 1.770844
v -4.784691 2.049720 1.770844
v -1.880138 2.049720 4.099243
v 1.024414 2.049720 1.770844
v -1.880138 2.049720 -0.557556
v -1.880138 0.426435 -0.557556
vt 0.591442 0.753297
vt 0.591442 0.996703
vt 0.408558 0.996703
vt 0.408558 0.753297
vt 0.408558 0.022066
vt 0.408520 0.039850
vt 0.591442 0.022066
vt 0.591480 0.039850
vt 0.591480 0.072418
vt 0.408520 0.072418
vt 0.371703 0.019048
vt 0.371703 0.039850
vt 0.371703 0.072418
vt 0.128297 0.060652
vt 0.128297 0.039850
vt 0.128297 0.019048
vt 0.628297 0.072418
vt 0.628297 0.039850
vt 0.628297 0.019048
vt 0.871703 0.019048
vt 0.871703 0.039850
vt 0.871703 0.060652
vt 0.591480 0.677581
vt 0.591480 0.710150
vt 0.591442 0.727934
vt 0.408558 0.727934
vt 0.408520 0.710150
vt 0.408520 0.677581
vt 0.376967 0.996703
vt 0.375000 0.996703
vt 0.375000 0.753297
vt 0.376967 0.753297
vt 0.408671 0.010318
vt 0.408558 0.000000
vt 0.591442 0.000000
vt 0.591329 0.010318
vt 0.375000 0.019048
vt 0.376967 0.022661
vt 0.376816 0.039850
vt 0.375000 0.039850
vt 0.376816 0.072418
vt 0.375000 0.072418
vt 0.625000 0.996703
vt 0.623033 0.996703
vt 0.623033 0.753297
vt 0.625000 0.753297
vt 0.623033 0.022661
vt 0.623184 0.039850
vt 0.625000 0.019048
vt 0.625000 0.039850
vt 0.625000 0.072418
vt 0.623184 0.072418
vt 0.375000 0.253297
vt 0.376967 0.252473
vt 0.408558 0.251648
vt 0.408558 0.466475
vt 0.376967 0.466449
vt 0.375000 0.496703
vt 0.591442 0.251648
vt 0.591329 0.240438
vt 0.408671 0.240438
vt 0.408558 0.229003
vt 0.591442 0.229003
vt 0.623033 0.252473
vt 0.625000 0.253297
vt 0.625000 0.496703
vt 0.623033 0.466449
vt 0.591442 0.466475
vt 0.375000 0.689348
vt 0.376816 0.677582
vt 0.376816 0.710150
vt 0.375000 0.710150
vt 0.376967 0.727339
vt 0.375000 0.730952
vt 0.408558 0.500000
vt 0.408671 0.498214
vt 0.591329 0.498214
vt 0.591442 0.500000
vt 0.623184 0.677582
vt 0.623184 0.710150
vt 0.625000 0.689348
vt 0.625000 0.710150
vt 0.625000 0.730952
vt 0.623033 0.727339
vt 0.591442 0.750000
vt 0.591329 0.739682
vt 0.408558 0.750000
vt 0.408671 0.739682
vt 0.376967 0.009524
vt 0.377421 0.012699
vt 0.623033 0.009524
vt 0.622579 0.012699
vt 0.376967 0.241300
vt 0.377421 0.237851
vt 0.375000 0.230952
vt 0.376967 0.228356
vt 0.625000 0.230952
vt 0.623033 0.241300
vt 0.622579 0.237851
vt 0.623033 0.228356
vt 0.376967 0.498352
vt 0.377421 0.497802
vt 0.623033 0.498352
vt 0.622579 0.497802
vt 0.376967 0.740476
vt 0.377421 0.737301
vt 0.623033 0.740476
vt 0.622579 0.737301
vt 0.591480 0.183741
vt 0.591480 0.213670
vt 0.408520 0.213670
vt 0.408520 0.183741
vt 0.375000 0.183741
vt 0.376816 0.183741
vt 0.376816 0.213670
vt 0.375000 0.213670
vt 0.371703 0.183741
vt 0.371703 0.213670
vt 0.371703 0.230952
vt 0.128297 0.230952
vt 0.128297 0.213669
vt 0.128297 0.196387
vt 0.375000 0.519048
vt 0.376967 0.519048
vt 0.376816 0.536330
vt 0.375000 0.536330
vt 0.408558 0.519048
vt 0.408520 0.536330
vt 0.408520 0.566259
vt 0.376816 0.566259
vt 0.375000 0.553613
vt 0.591442 0.519048
vt 0.591480 0.536330
vt 0.591480 0.566259
vt 0.623033 0.519048
vt 0.623184 0.536330
vt 0.625000 0.519048
vt 0.625000 0.536330
vt 0.625000 0.553613
vt 0.623184 0.566259
vt 0.871703 0.196387
vt 0.871703 0.213669
vt 0.871703 0.230952
vt 0.628297 0.230952
vt 0.628297 0.213670
vt 0.628297 0.183741
vt 0.623184 0.183741
vt 0.623184 0.213670
vt 0.625000 0.183741
vt 0.625000 0.213670
vt 0.408520 0.128520
vt 0.591480 0.128520
vt 0.376816 0.128520
vt 0.375000 0.128520
vt 0.128297 0.128519
vt 0.371703 0.128520
vt 0.376816 0.621480
vt 0.375000 0.621480
vt 0.408520 0.621480
vt 0.591480 0.621480
vt 0.623184 0.621480
vt 0.625000 0.621480
vt 0.628297 0.128520
vt 0.871703 0.128519
vt 0.623184 0.128520
vt 0.625000 0.128520
vt 0.375000 0.011429
vt 0.500000 0.038393
vt 0.500000 0.125000
vt 0.375000 0.125000
vt 0.625000 0.011429
vt 0.625000 0.125000
vt 0.625000 0.238571
vt 0.500000 0.211607
vt 0.375000 0.238571
vt 0.375000 0.511429
vt 0.500000 0.511429
vt 0.500000 0.625000
vt 0.375000 0.625000
vt 0.625000 0.511429
vt 0.625000 0.625000
vt 0.625000 0.738571
vt 0.500000 0.711607
vt 0.375000 0.738571
vt 0.750000 0.011429
vt 0.750000 0.125000
vt 0.875000 0.011429
vt 0.875000 0.125000
vt 0.875000 0.238571
vt 0.750000 0.238571
vt 0.125000 0.011429
vt 0.250000 0.011429
vt 0.250000 0.125000
vt 0.125000 0.125000
vt 0.250000 0.238571
vt 0.125000 0.238571
vt 0.376638 0.752921
vt 0.500000 0.752921
vt 0.500000 0.875000
vt 0.407274 0.875000
vt 0.623362 0.752921
vt 0.592726 0.875000
vt 0.623362 0.997079
vt 0.500000 0.997079
vt 0.376638 0.997079
vt 0.623362 0.252921
vt 0.592726 0.375000
vt 0.500000 0.375000
vt 0.500000 0.252921
vt 0.568807 0.443309
vt 0.500000 0.466924
vt 0.431193 0.443309
vt 0.407274 0.375000
vt 0.376638 0.252921
vt 0.375819 0.998540
vt 0.375819 0.875000
vt 0.375000 1.000000
vt 0.375000 0.875000
vt 0.375000 0.750000
vt 0.375819 0.751460
vt 0.375000 0.005714
vt 0.500000 0.005714
vt 0.375000 0.000000
vt 0.500000 0.000000
vt 0.625000 0.000000
vt 0.625000 0.005714
vt 0.625000 1.000000
vt 0.624181 0.998540
vt 0.624181 0.875000
vt 0.625000 0.875000
vt 0.624181 0.751460
vt 0.625000 0.750000
vt 0.375000 0.250000
vt 0.375819 0.251460
vt 0.375819 0.375000
vt 0.375000 0.375000
vt 0.406864 0.467655
vt 0.375000 0.500000
vt 0.375000 0.250000
vt 0.375000 0.244285
vt 0.500000 0.244285
vt 0.500000 0.250000
vt 0.625000 0.244285
vt 0.625000 0.250000
vt 0.624181 0.251460
vt 0.624181 0.375000
vt 0.625000 0.250000
vt 0.625000 0.375000
vt 0.625000 0.500000
vt 0.593136 0.467655
vt 0.500000 0.498540
vt 0.500000 0.500000
vt 0.375000 0.750000
vt 0.375000 0.744285
vt 0.500000 0.744285
vt 0.500000 0.750000
vt 0.625000 0.744285
vt 0.625000 0.750000
vn -0.009036 -0.999908 0.010107
vn -0.009036 -0.999908 -0.010107
vn 0.009036 -0.999908 -0.010107
vn 0.009036 -0.999908 0.010107
vn -0.028362 0.154939 0.987517
vn -0.018135 0.309386 0.950764
vn -0.006690 0.191166 0.981535
vn -0.019672 0.111948 0.993519
vn -0.017239 -0.143816 0.989454
vn -0.026282 -0.164549 0.986019
vn -0.993520 -0.112721 0.014600
vn -0.999703 -0.023456 0.006641
vn -0.999764 -0.020323 -0.007711
vn -0.994275 -0.106435 -0.009383
vn -0.999982 -0.001151 0.005855
vn -0.999968 -0.000224 -0.008021
vn 0.999972 -0.000467 0.007417
vn 0.999761 -0.020627 0.007245
vn 0.999760 -0.020648 -0.007336
vn 0.999972 -0.000285 -0.007520
vn 0.994197 -0.107127 0.009814
vn 0.994197 -0.107127 -0.009814
vn 0.004717 -0.045961 -0.998932
vn 0.004542 -0.035742 -0.999351
vn -0.004541 -0.035743 -0.999351
vn -0.004716 -0.045963 -0.998932
vn 0.006131 -0.078076 -0.996929
vn -0.006131 -0.078076 -0.996929
vn -0.210928 -0.977470 0.007886
vn -0.212801 -0.977064 -0.007858
vn -0.006178 -0.964144 0.265309
vn 0.004901 -0.964282 0.264831
vn -0.578110 0.282916 0.765341
vn -0.647818 0.193420 0.736831
vn -0.684232 -0.162259 0.710984
vn 0.213146 -0.976989 0.007859
vn 0.213146 -0.976989 -0.007859
vn 0.621809 -0.120705 0.773811
vn 0.626916 -0.027639 0.778596
vn 0.629310 -0.062776 0.774615
vn -0.992814 0.119376 0.008407
vn -0.208186 0.978058 0.007892
vn -0.203948 0.978956 -0.007164
vn -0.992527 0.121653 -0.009485
vn -0.009132 0.999910 0.009831
vn -0.009000 0.999912 -0.009802
vn 0.010539 0.977960 0.208528
vn 0.008978 0.999913 0.009685
vn 0.000272 0.978550 0.206008
vn 0.028990 0.326470 0.944763
vn 0.043313 0.214559 0.975750
vn 0.202345 0.979286 0.007435
vn 0.202618 0.979229 -0.007483
vn 0.008926 0.999912 -0.009799
vn 0.992509 0.121787 0.009720
vn 0.992509 0.121788 -0.009720
vn -0.627677 -0.034997 -0.777687
vn -0.624307 -0.036658 -0.780318
vn -0.619261 -0.151768 -0.770378
vn -0.006487 0.092579 -0.995684
vn -0.005615 0.971877 -0.235424
vn 0.005416 0.971805 -0.235726
vn 0.006497 0.092607 -0.995682
vn 0.637054 -0.034983 -0.770025
vn 0.634996 -0.035747 -0.771688
vn 0.624011 -0.150553 -0.766775
vn 0.005354 -0.966676 -0.255948
vn -0.005354 -0.966676 -0.255948
vn -0.124501 -0.972905 0.194823
vn 0.147773 -0.971762 0.183964
vn -0.146803 0.978533 0.144645
vn -0.554432 0.445628 0.702866
vn 0.139690 0.976817 0.162218
vn 0.645341 0.203362 0.736328
vn -0.648831 0.174227 -0.740718
vn -0.141097 0.976289 -0.164168
vn 0.634681 0.174712 -0.752765
vn 0.139030 0.976172 -0.166610
vn -0.147249 -0.971968 -0.183291
vn 0.147622 -0.971914 -0.183280
vn 0.025822 -0.235194 0.971605
vn 0.042623 -0.063376 0.997079
vn 0.032635 -0.076750 0.996516
vn 0.016124 -0.279382 0.960045
vn -0.999954 -0.003868 0.008827
vn -0.559400 -0.328439 0.761052
vn -0.565784 -0.090568 0.819564
vn -0.999709 0.022379 0.008974
vn -0.999707 0.023240 -0.006792
vn -0.999974 -0.000116 -0.007253
vn -0.652820 0.005658 -0.757492
vn -0.004699 -0.004883 -0.999977
vn -0.004804 -0.047856 -0.998843
vn -0.642834 -0.035499 -0.765183
vn 0.004706 -0.004880 -0.999977
vn 0.004810 -0.047854 -0.998843
vn 0.637651 0.005039 -0.770309
vn 0.999705 0.023130 -0.007347
vn 0.999971 -0.000303 -0.007627
vn 0.633833 -0.036557 -0.772606
vn 0.999704 0.023163 0.007448
vn 0.999970 -0.000514 0.007737
vn 0.638505 -0.074289 0.766024
vn 0.650136 -0.009398 0.759760
vn -0.006829 -0.297648 0.954651
vn 0.002265 -0.251808 0.967775
vn -0.609244 -0.330753 0.720711
vn -0.999968 -0.003197 0.007325
vn -0.999971 -0.000159 -0.007635
vn -0.634747 -0.041125 -0.771625
vn -0.004758 -0.054889 -0.998481
vn 0.004762 -0.054887 -0.998481
vn 0.635508 -0.041851 -0.770959
vn 0.999971 -0.000344 -0.007570
vn 0.999971 -0.000574 0.007569
vn 0.632810 -0.083750 0.769765
vn -0.626272 -0.030468 0.779009
vn -0.000000 -0.031719 0.999497
vn -0.000000 0.000000 1.000000
vn -0.626940 -0.000000 0.779068
vn 0.626272 -0.030468 0.779009
vn 0.626940 0.000000 0.779068
vn 0.626272 0.030468 0.779009
vn -0.000000 0.031719 0.999497
vn -0.626272 0.030468 0.779009
vn -0.626272 0.030468 -0.779009
vn -0.000000 0.031719 -0.999497
vn -0.000000 0.000000 -1.000000
vn -0.626940 -0.000000 -0.779068
vn 0.626272 0.030468 -0.779009
vn 0.626940 0.000000 -0.779068
vn 0.626272 -0.030468 -0.779009
vn -0.000000 -0.031719 -0.999497
vn -0.626272 -0.030468 -0.779009
vn 0.999672 -0.025628 0.000000
vn 1.000000 -0.000000 0.000000
vn 0.999672 0.025628 -0.000000
vn -0.999672 -0.025628 -0.000000
vn -1.000000 -0.000000 0.000000
vn -0.999672 0.025628 0.000000
vn -0.012484 -0.999786 -0.016517
vn 0.000000 -0.999813 -0.019319
vn 0.000000 -1.000000 -0.000000
vn -0.016734 -0.999860 -0.000000
vn 0.012484 -0.999786 -0.016517
vn 0.016734 -0.999860 -0.000000
vn 0.012484 -0.999786 0.016517
vn 0.000000 -0.999813 0.019319
vn -0.012484 -0.999786 0.016517
vn 0.012484 0.999786 0.016518
vn 0.016734 0.999860 -0.000000
vn 0.000000 1.000000 -0.000000
vn -0.000000 0.999813 0.019319
vn 0.012484 0.999786 -0.016518
vn 0.000000 0.999813 -0.019319
vn -0.012484 0.999786 -0.016518
vn -0.016734 0.999860 0.000000
vn -0.012484 0.999786 0.016518
vn -0.299159 -0.880600 0.367489
vn -0.434301 -0.900768 -0.000000
vn -0.299159 -0.880600 -0.367489
vn 0.000000 -0.882411 0.470479
vn 0.299159 -0.880600 0.367488
vn 0.434300 -0.900768 -0.000000
vn 0.299160 -0.880600 -0.367489
vn -0.299160 0.880599 0.367489
vn -0.434301 0.900768 0.000000
vn -0.299160 0.880599 -0.367489
vn -0.000000 0.882410 0.470481
vn 0.299160 0.880599 0.367489
vn 0.434301 0.900768 0.000000
vn 0.299160 0.880599 -0.367489
vn 0.000000 0.882410 -0.470480
vn 0.000000 -0.882411 -0.470479
s 1
g Stool
usemtl stool:initialShadingGroup
f 2/3/1 19/4/2 23/1/3 4/2/4
f 57/6/5 3/5/6 6/7/7 58/8/8
f 57/6/5 58/8/8 40/9/9 33/10/10
f 1/11/11 59/12/12 60/15/13 20/16/14
f 59/12/12 34/13/15 35/14/16 60/15/13
f 39/17/17 61/18/18 62/21/19 38/22/20
f 61/18/18 5/19/21 22/20/22 62/21/19
f 37/23/23 63/24/24 64/27/25 36/28/26
f 63/24/24 24/25/27 21/26/28 64/27/25
f 19/4/2 2/3/1 65/29/29 66/32/30
f 65/29/29 1/30/11 20/31/14 66/32/30
f 6/7/7 3/5/6 67/33/31 68/36/32
f 67/33/31 2/34/1 4/35/4 68/36/32
f 1/37/11 69/38/33 141/39/34 59/40/12
f 69/38/33 3/5/6 57/6/5 141/39/34
f 141/39/34 57/6/5 33/10/10 70/41/35
f 59/40/12 141/39/34 70/41/35 34/42/15
f 22/46/22 5/43/21 71/44/36 72/45/37
f 71/44/36 4/2/4 23/1/3 72/45/37
f 6/7/7 73/47/38 142/48/39 58/8/8
f 73/47/38 5/49/21 61/50/18 142/48/39
f 142/48/39 61/50/18 39/51/17 74/52/40
f 58/8/8 142/48/39 74/52/40 40/9/9
f 8/53/41 75/54/42 76/57/43 14/58/44
f 75/54/42 7/55/45 15/56/46 76/57/43
f 77/60/47 11/59/48 7/55/45 78/61/49
f 77/60/47 78/61/49 9/62/50 12/63/51
f 11/59/48 79/64/52 80/67/53 18/68/54
f 79/64/52 10/65/55 16/66/56 80/67/53
f 35/69/16 81/70/57 143/71/58 60/72/13
f 81/70/57 36/28/26 64/27/25 143/71/58
f 143/71/58 64/27/25 21/26/28 82/73/59
f 60/72/13 143/71/58 82/73/59 20/74/14
f 13/75/60 83/76/61 84/77/62 17/78/63
f 83/76/61 15/56/46 18/68/54 84/77/62
f 37/23/23 85/79/64 144/80/65 63/24/24
f 85/79/64 38/81/20 62/82/19 144/80/65
f 144/80/65 62/82/19 22/83/22 86/84/66
f 63/24/24 144/80/65 86/84/66 24/25/27
f 87/86/67 23/85/3 19/87/2 88/88/68
f 87/86/67 88/88/68 21/26/28 24/25/27
f 1/37/11 65/89/29 145/90/69 69/38/33
f 2/34/1 67/33/31 145/90/69 65/89/29
f 3/5/6 69/38/33 145/90/69 67/33/31
f 4/35/4 71/91/36 146/92/70 68/36/32
f 5/49/21 73/47/38 146/92/70 71/91/36
f 6/7/7 68/36/32 146/92/70 73/47/38
f 7/55/45 75/93/42 147/94/71 78/61/49
f 8/95/41 89/96/72 147/94/71 75/93/42
f 9/62/50 78/61/49 147/94/71 89/96/72
f 10/97/55 79/98/52 148/99/73 90/100/74
f 11/59/48 77/60/47 148/99/73 79/98/52
f 12/63/51 90/100/74 148/99/73 77/60/47
f 13/75/60 91/101/75 149/102/76 83/76/61
f 14/58/44 76/57/43 149/102/76 91/101/75
f 15/56/46 83/76/61 149/102/76 76/57/43
f 16/66/56 92/103/77 150/104/78 80/67/53
f 17/78/63 84/77/62 150/104/78 92/103/77
f 18/68/54 80/67/53 150/104/78 84/77/62
f 19/87/2 66/105/30 151/106/79 88/88/68
f 20/74/14 82/73/59 151/106/79 66/105/30
f 21/26/28 88/88/68 151/106/79 82/73/59
f 22/83/22 72/107/37 152/108/80 86/84/66
f 23/85/3 87/86/67 152/108/80 72/107/37
f 24/25/27 86/84/66 152/108/80 87/86/67
f 32/109/81 93/110/82 94/111/83 25/112/84
f 93/110/82 12/63/51 9/62/50 94/111/83
f 26/113/85 95/114/86 153/115/87 96/116/88
f 95/114/86 25/112/84 94/111/83 153/115/87
f 153/115/87 94/111/83 9/62/50 89/96/72
f 96/116/88 153/115/87 89/96/72 8/95/41
f 26/117/85 96/118/88 97/121/89 27/122/90
f 96/118/88 8/119/41 14/120/44 97/121/89
f 14/123/44 91/124/75 154/125/91 97/126/89
f 91/124/75 13/127/60 98/128/92 154/125/91
f 154/125/91 98/128/92 28/129/93 99/130/94
f 97/126/89 154/125/91 99/130/94 27/131/90
f 28/129/93 98/128/92 100/133/95 29/134/96
f 98/128/92 13/127/60 17/132/63 100/133/95
f 17/132/63 92/135/77 155/136/97 100/133/95
f 92/135/77 16/137/56 101/138/98 155/136/97
f 155/136/97 101/138/98 30/139/99 102/140/100
f 100/133/95 155/136/97 102/140/100 29/134/96
f 30/141/99 101/142/98 103/145/101 31/146/102
f 101/142/98 16/143/56 10/144/55 103/145/101
f 32/109/81 104/147/103 156/148/104 93/110/82
f 104/147/103 31/149/102 103/150/101 156/148/104
f 156/148/104 103/150/101 10/97/55 90/100/74
f 93/110/82 156/148/104 90/100/74 12/63/51
f 105/151/105 33/10/10 40/9/9 106/152/106
f 105/151/105 106/152/106 32/109/81 25/112/84
f 34/42/15 70/41/35 157/153/107 107/154/108
f 70/41/35 33/10/10 105/151/105 157/153/107
f 157/153/107 105/151/105 25/112/84 95/114/86
f 107/154/108 157/153/107 95/114/86 26/113/85
f 108/155/109 35/14/16 34/13/15 107/156/108
f 108/155/109 107/156/108 26/117/85 27/122/90
f 27/131/90 99/130/94 158/157/110 108/158/109
f 99/130/94 28/129/93 109/159/111 158/157/110
f 158/157/110 109/159/111 36/28/26 81/70/57
f 108/158/109 158/157/110 81/70/57 35/69/16
f 110/160/112 37/23/23 36/28/26 109/159/111
f 110/160/112 109/159/111 28/129/93 29/134/96
f 29/134/96 102/140/100 159/161/113 110/160/112
f 102/140/100 30/139/99 111/162/114 159/161/113
f 159/161/113 111/162/114 38/81/20 85/79/64
f 110/160/112 159/161/113 85/79/64 37/23/23
f 112/163/115 39/17/17 38/22/20 111/164/114
f 112/163/115 111/164/114 30/141/99 31/146/102
f 40/9/9 74/52/40 160/165/116 106/152/106
f 74/52/40 39/51/17 112/166/115 160/165/116
f 160/165/116 112/166/115 31/149/102 104/147/103
f 106/152/106 160/165/116 104/147/103 32/109/81
s 11
f 42/167/117 113/168/118 161/169/119 114/170/120
f 113/168/118 44/171/121 115/172/122 161/169/119
f 161/169/119 115/172/122 48/173/123 116/174/124
f 114/170/120 161/169/119 116/174/124 46/175/125
f 49/176/126 117/177/127 162/178/128 118/179/129
f 117/177/127 51/180/130 119/181/131 162/178/128
f 162/178/128 119/181/131 56/182/132 120/183/133
f 118/179/129 162/178/128 120/183/133 54/184/134
f 44/171/121 121/185/135 163/186/136 115/172/122
f 121/185/135 56/187/132 119/188/131 163/186/136
f 163/186/136 119/188/131 51/189/130 122/190/137
f 115/172/122 163/186/136 122/190/137 48/173/123
f 54/191/134 123/192/138 164/193/139 118/194/129
f 123/192/138 42/167/117 114/170/120 164/193/139
f 164/193/139 114/170/120 46/175/125 124/195/140
f 118/194/129 164/193/139 124/195/140 49/196/126
f 53/197/141 125/198/142 165/199/143 126/200/144
f 125/198/142 55/201/145 127/202/146 165/199/143
f 165/199/143 127/202/146 43/203/147 128/204/148
f 126/200/144 165/199/143 128/204/148 41/205/149
f 47/206/150 129/207/151 166/208/152 130/209/153
f 129/207/151 52/210/154 131/211/155 166/208/152
f 166/208/152 131/211/155 50/212/156 132/213/157
f 130/209/153 166/208/152 132/213/157 45/214/158
f 41/205/149 133/215/159 167/216/160 126/200/144
f 133/215/159 42/217/117 123/218/138 167/216/160
f 167/216/160 123/218/138 54/219/134 134/220/161
f 126/200/144 167/216/160 134/220/161 53/197/141
f 42/167/117 133/221/159 168/222/162 113/168/118
f 133/221/159 41/223/149 128/224/148 168/222/162
f 168/222/162 128/224/148 43/225/147 135/226/163
f 113/168/118 168/222/162 135/226/163 44/171/121
f 44/227/121 135/228/163 169/229/164 121/230/135
f 135/228/163 43/203/147 127/202/146 169/229/164
f 169/229/164 127/202/146 55/201/145 136/231/165
f 121/230/135 169/229/164 136/231/165 56/232/132
f 46/233/125 137/234/166 170/235/167 124/236/140
f 137/234/166 45/214/158 132/213/157 170/235/167
f 170/235/167 132/213/157 50/212/156 138/237/168
f 124/236/140 170/235/167 138/237/168 49/238/126
f 45/239/158 137/240/166 171/241/169 130/242/153
f 137/240/166 46/175/125 116/174/124 171/241/169
f 171/241/169 116/174/124 48/173/123 139/243/170
f 130/242/153 171/241/169 139/243/170 47/244/150
f 47/206/150 139/245/170 172/246/171 129/207/151
f 139/245/170 48/247/123 122/248/137 172/246/171
f 172/246/171 122/248/137 51/249/130 140/250/172
f 129/207/151 172/246/171 140/250/172 52/210/154
f 49/238/126 138/237/168 173/251/173 117/252/127
f 138/237/168 50/212/156 131/211/155 173/251/173
f 173/251/173 131/211/155 52/210/154 140/250/172
f 117/252/127 173/251/173 140/250/172 51/249/130
f 53/253/141 134/254/161 174/255/174 125/256/142
f 134/254/161 54/184/134 120/183/133 174/255/174
f 174/255/174 120/183/133 56/182/132 136/257/165
f 125/256/142 174/255/174 136/257/165 55/258/145
s 1
f 7/55/45 11/59/48 18/68/54 15/56/46
